<mxfile host="app.diagrams.net" modified="2024-07-10T13:00:40.676Z" agent="Mozilla/5.0 (Windows NT 10.0; Win64; x64) AppleWebKit/537.36 (KHTML, like Gecko) Chrome/125.0.0.0 Safari/537.36" etag="LhOoBZAMoBRFUj0qQA0O" version="24.6.4" type="github">
  <diagram id="prtHgNgQTEPvFCAcTncT" name="Page-1">
    <mxGraphModel dx="1195" dy="658" grid="1" gridSize="10" guides="1" tooltips="1" connect="1" arrows="1" fold="1" page="1" pageScale="1" pageWidth="827" pageHeight="1169" math="0" shadow="0">
      <root>
        <mxCell id="0" />
        <mxCell id="1" parent="0" />
        <mxCell id="zcAVxgTRGgth5SF6y03x-1" value="Pool" style="swimlane;childLayout=stackLayout;resizeParent=1;resizeParentMax=0;startSize=20;horizontal=0;horizontalStack=1;" vertex="1" parent="1">
          <mxGeometry x="50" y="60" width="1020" height="480" as="geometry">
            <mxRectangle x="180" y="60" width="40" height="50" as="alternateBounds" />
          </mxGeometry>
        </mxCell>
        <mxCell id="zcAVxgTRGgth5SF6y03x-2" value="企微H5" style="swimlane;startSize=20;" vertex="1" parent="zcAVxgTRGgth5SF6y03x-1">
          <mxGeometry x="20" width="200" height="480" as="geometry" />
        </mxCell>
        <mxCell id="zcAVxgTRGgth5SF6y03x-15" value="生成总结" style="rounded=0;whiteSpace=wrap;html=1;" vertex="1" parent="zcAVxgTRGgth5SF6y03x-2">
          <mxGeometry x="55" y="50" width="90" height="30" as="geometry" />
        </mxCell>
        <mxCell id="zcAVxgTRGgth5SF6y03x-24" value="AI总结结果&lt;div&gt;流式&lt;/div&gt;" style="rounded=0;whiteSpace=wrap;html=1;" vertex="1" parent="zcAVxgTRGgth5SF6y03x-2">
          <mxGeometry x="77.5" y="101" width="45" height="220" as="geometry" />
        </mxCell>
        <mxCell id="zcAVxgTRGgth5SF6y03x-3" value="conversation" style="swimlane;startSize=20;" vertex="1" parent="zcAVxgTRGgth5SF6y03x-1">
          <mxGeometry x="220" width="210" height="480" as="geometry" />
        </mxCell>
        <mxCell id="zcAVxgTRGgth5SF6y03x-17" value="条件判断&lt;div&gt;（企微IM会话数量）&lt;/div&gt;" style="rounded=0;whiteSpace=wrap;html=1;" vertex="1" parent="zcAVxgTRGgth5SF6y03x-3">
          <mxGeometry x="45" y="45" width="120" height="40" as="geometry" />
        </mxCell>
        <mxCell id="zcAVxgTRGgth5SF6y03x-27" value="" style="edgeStyle=orthogonalEdgeStyle;rounded=0;orthogonalLoop=1;jettySize=auto;html=1;" edge="1" parent="zcAVxgTRGgth5SF6y03x-3" source="zcAVxgTRGgth5SF6y03x-22" target="zcAVxgTRGgth5SF6y03x-26">
          <mxGeometry relative="1" as="geometry" />
        </mxCell>
        <mxCell id="zcAVxgTRGgth5SF6y03x-22" value="流式总结" style="rounded=0;whiteSpace=wrap;html=1;" vertex="1" parent="zcAVxgTRGgth5SF6y03x-3">
          <mxGeometry x="60" y="101" width="90" height="30" as="geometry" />
        </mxCell>
        <mxCell id="zcAVxgTRGgth5SF6y03x-26" value="全部总结内容" style="rounded=0;whiteSpace=wrap;html=1;" vertex="1" parent="zcAVxgTRGgth5SF6y03x-3">
          <mxGeometry x="60" y="160" width="90" height="30" as="geometry" />
        </mxCell>
        <mxCell id="zcAVxgTRGgth5SF6y03x-30" value="summaryRecord" style="rounded=0;whiteSpace=wrap;html=1;" vertex="1" parent="zcAVxgTRGgth5SF6y03x-3">
          <mxGeometry x="60" y="210" width="90" height="30" as="geometry" />
        </mxCell>
        <mxCell id="zcAVxgTRGgth5SF6y03x-35" value="评价id+问题" style="rounded=0;whiteSpace=wrap;html=1;" vertex="1" parent="zcAVxgTRGgth5SF6y03x-3">
          <mxGeometry x="60" y="289" width="90" height="30" as="geometry" />
        </mxCell>
        <mxCell id="zcAVxgTRGgth5SF6y03x-16" value="open api" style="swimlane;startSize=20;" vertex="1" parent="zcAVxgTRGgth5SF6y03x-1">
          <mxGeometry x="430" width="210" height="480" as="geometry" />
        </mxCell>
        <mxCell id="zcAVxgTRGgth5SF6y03x-18" value="chat completion" style="rounded=0;whiteSpace=wrap;html=1;" vertex="1" parent="zcAVxgTRGgth5SF6y03x-16">
          <mxGeometry x="45" y="45" width="120" height="40" as="geometry" />
        </mxCell>
        <mxCell id="zcAVxgTRGgth5SF6y03x-4" value="evaluation" style="swimlane;startSize=20;" vertex="1" parent="zcAVxgTRGgth5SF6y03x-1">
          <mxGeometry x="640" width="180" height="480" as="geometry">
            <mxRectangle x="260" width="40" height="480" as="alternateBounds" />
          </mxGeometry>
        </mxCell>
        <mxCell id="zcAVxgTRGgth5SF6y03x-32" value="生成评价" style="rounded=0;whiteSpace=wrap;html=1;" vertex="1" parent="zcAVxgTRGgth5SF6y03x-4">
          <mxGeometry x="45" y="250" width="90" height="30" as="geometry" />
        </mxCell>
        <mxCell id="zcAVxgTRGgth5SF6y03x-14" value="mysql" style="swimlane;startSize=20;" vertex="1" parent="zcAVxgTRGgth5SF6y03x-1">
          <mxGeometry x="820" width="200" height="480" as="geometry">
            <mxRectangle x="260" width="40" height="480" as="alternateBounds" />
          </mxGeometry>
        </mxCell>
        <mxCell id="zcAVxgTRGgth5SF6y03x-28" value="save&lt;div&gt;summaryRecord&lt;/div&gt;" style="rounded=0;whiteSpace=wrap;html=1;" vertex="1" parent="zcAVxgTRGgth5SF6y03x-14">
          <mxGeometry x="70" y="160" width="90" height="30" as="geometry" />
        </mxCell>
        <mxCell id="zcAVxgTRGgth5SF6y03x-19" style="edgeStyle=orthogonalEdgeStyle;rounded=0;orthogonalLoop=1;jettySize=auto;html=1;entryX=0;entryY=0.5;entryDx=0;entryDy=0;" edge="1" parent="zcAVxgTRGgth5SF6y03x-1" source="zcAVxgTRGgth5SF6y03x-17" target="zcAVxgTRGgth5SF6y03x-18">
          <mxGeometry relative="1" as="geometry" />
        </mxCell>
        <mxCell id="zcAVxgTRGgth5SF6y03x-20" value="prompt+text" style="edgeLabel;html=1;align=center;verticalAlign=middle;resizable=0;points=[];" vertex="1" connectable="0" parent="zcAVxgTRGgth5SF6y03x-19">
          <mxGeometry x="-0.3519" y="-1" relative="1" as="geometry">
            <mxPoint x="16" y="-1" as="offset" />
          </mxGeometry>
        </mxCell>
        <mxCell id="zcAVxgTRGgth5SF6y03x-23" style="edgeStyle=orthogonalEdgeStyle;rounded=0;orthogonalLoop=1;jettySize=auto;html=1;exitX=0.5;exitY=1;exitDx=0;exitDy=0;entryX=1;entryY=0.5;entryDx=0;entryDy=0;" edge="1" parent="zcAVxgTRGgth5SF6y03x-1" source="zcAVxgTRGgth5SF6y03x-18" target="zcAVxgTRGgth5SF6y03x-22">
          <mxGeometry relative="1" as="geometry" />
        </mxCell>
        <mxCell id="zcAVxgTRGgth5SF6y03x-25" style="edgeStyle=orthogonalEdgeStyle;rounded=0;orthogonalLoop=1;jettySize=auto;html=1;entryX=1;entryY=0.073;entryDx=0;entryDy=0;entryPerimeter=0;dashed=1;" edge="1" parent="zcAVxgTRGgth5SF6y03x-1" source="zcAVxgTRGgth5SF6y03x-22" target="zcAVxgTRGgth5SF6y03x-24">
          <mxGeometry relative="1" as="geometry" />
        </mxCell>
        <mxCell id="zcAVxgTRGgth5SF6y03x-40" value="流式Message" style="edgeLabel;html=1;align=center;verticalAlign=middle;resizable=0;points=[];" vertex="1" connectable="0" parent="zcAVxgTRGgth5SF6y03x-25">
          <mxGeometry x="-0.2469" y="1" relative="1" as="geometry">
            <mxPoint as="offset" />
          </mxGeometry>
        </mxCell>
        <mxCell id="zcAVxgTRGgth5SF6y03x-29" style="edgeStyle=orthogonalEdgeStyle;rounded=0;orthogonalLoop=1;jettySize=auto;html=1;" edge="1" parent="zcAVxgTRGgth5SF6y03x-1" source="zcAVxgTRGgth5SF6y03x-26" target="zcAVxgTRGgth5SF6y03x-28">
          <mxGeometry relative="1" as="geometry" />
        </mxCell>
        <mxCell id="zcAVxgTRGgth5SF6y03x-31" style="edgeStyle=orthogonalEdgeStyle;rounded=0;orthogonalLoop=1;jettySize=auto;html=1;entryX=1;entryY=0.5;entryDx=0;entryDy=0;exitX=0.5;exitY=1;exitDx=0;exitDy=0;" edge="1" parent="zcAVxgTRGgth5SF6y03x-1" source="zcAVxgTRGgth5SF6y03x-28" target="zcAVxgTRGgth5SF6y03x-30">
          <mxGeometry relative="1" as="geometry" />
        </mxCell>
        <mxCell id="zcAVxgTRGgth5SF6y03x-33" style="edgeStyle=orthogonalEdgeStyle;rounded=0;orthogonalLoop=1;jettySize=auto;html=1;entryX=0;entryY=0.5;entryDx=0;entryDy=0;exitX=0.5;exitY=1;exitDx=0;exitDy=0;" edge="1" parent="zcAVxgTRGgth5SF6y03x-1" source="zcAVxgTRGgth5SF6y03x-30" target="zcAVxgTRGgth5SF6y03x-32">
          <mxGeometry relative="1" as="geometry" />
        </mxCell>
        <mxCell id="zcAVxgTRGgth5SF6y03x-34" value="被评价对象：summaryId" style="edgeLabel;html=1;align=center;verticalAlign=middle;resizable=0;points=[];" vertex="1" connectable="0" parent="zcAVxgTRGgth5SF6y03x-33">
          <mxGeometry x="-0.1169" y="1" relative="1" as="geometry">
            <mxPoint as="offset" />
          </mxGeometry>
        </mxCell>
        <mxCell id="zcAVxgTRGgth5SF6y03x-37" style="edgeStyle=orthogonalEdgeStyle;rounded=0;orthogonalLoop=1;jettySize=auto;html=1;exitX=0.5;exitY=1;exitDx=0;exitDy=0;entryX=1;entryY=0.5;entryDx=0;entryDy=0;" edge="1" parent="zcAVxgTRGgth5SF6y03x-1" source="zcAVxgTRGgth5SF6y03x-32" target="zcAVxgTRGgth5SF6y03x-35">
          <mxGeometry relative="1" as="geometry" />
        </mxCell>
        <mxCell id="zcAVxgTRGgth5SF6y03x-38" style="edgeStyle=orthogonalEdgeStyle;rounded=0;orthogonalLoop=1;jettySize=auto;html=1;exitX=0;exitY=0.5;exitDx=0;exitDy=0;entryX=0.991;entryY=0.926;entryDx=0;entryDy=0;entryPerimeter=0;dashed=1;" edge="1" parent="zcAVxgTRGgth5SF6y03x-1" source="zcAVxgTRGgth5SF6y03x-35" target="zcAVxgTRGgth5SF6y03x-24">
          <mxGeometry relative="1" as="geometry">
            <mxPoint x="180" y="300" as="targetPoint" />
          </mxGeometry>
        </mxCell>
        <mxCell id="zcAVxgTRGgth5SF6y03x-39" value="流式END" style="edgeLabel;html=1;align=center;verticalAlign=middle;resizable=0;points=[];" vertex="1" connectable="0" parent="zcAVxgTRGgth5SF6y03x-38">
          <mxGeometry x="-0.2107" relative="1" as="geometry">
            <mxPoint as="offset" />
          </mxGeometry>
        </mxCell>
        <mxCell id="zcAVxgTRGgth5SF6y03x-41" style="edgeStyle=orthogonalEdgeStyle;rounded=0;orthogonalLoop=1;jettySize=auto;html=1;entryX=0;entryY=0.5;entryDx=0;entryDy=0;" edge="1" parent="zcAVxgTRGgth5SF6y03x-1" source="zcAVxgTRGgth5SF6y03x-15" target="zcAVxgTRGgth5SF6y03x-17">
          <mxGeometry relative="1" as="geometry" />
        </mxCell>
      </root>
    </mxGraphModel>
  </diagram>
</mxfile>
